<?xml version="1.0" encoding="UTF-8" standalone="no"?>
<!DOCTYPE svg PUBLIC "-//W3C//DTD SVG 1.1//EN"
 "http://www.w3.org/Graphics/SVG/1.1/DTD/svg11.dtd">
<!-- Generated by graphviz version 2.38.0 (20140413.2041)
 -->
<!-- Title: G Pages: 1 -->
<svg width="1047pt" height="217pt"
 viewBox="0.00 0.00 1047.00 217.00" xmlns="http://www.w3.org/2000/svg" xmlns:xlink="http://www.w3.org/1999/xlink">
<g id="graph0" class="graph" transform="scale(1 1) rotate(0) translate(4 213)">
<title>G</title>
<polygon fill="white" stroke="none" points="-4,4 -4,-213 1043,-213 1043,4 -4,4"/>
<g id="clust1" class="cluster"><title>cluster_family_0</title>
</g>
<g id="clust4" class="cluster"><title>cluster_family_1</title>
</g>
<g id="clust7" class="cluster"><title>cluster_family_2</title>
</g>
<!-- union_0 -->
<g id="node1" class="node"><title>union_0</title>
<ellipse fill="#1abc9c" stroke="white" cx="220.5" cy="-75" rx="3.5" ry="3.5"/>
</g>
<!-- siblings_0 -->
<g id="node4" class="node"><title>siblings_0</title>
<polygon fill="#1abc9c" stroke="#cccccc" stroke-width="0" points="260,-75.5 253,-75.5 253,-74.5 260,-74.5 260,-75.5"/>
</g>
<!-- union_0&#45;&gt;siblings_0 -->
<g id="edge3" class="edge"><title>union_0&#45;&gt;siblings_0</title>
<path fill="none" stroke="#1abc9c" d="M224.083,-75C230.913,-75 245.732,-75 252.715,-75"/>
</g>
<!-- 逢沢寛 -->
<g id="node2" class="node"><title>逢沢寛</title>
<polygon fill="white" stroke="blue" points="188,-98 8,-98 8,-62 188,-62 188,-98"/>
<text text-anchor="middle" x="98" y="-75.8" font-family="Helvetica, Arial, sans-serif" font-size="14.00">逢沢寛</text>
</g>
<!-- 逢沢寛&#45;&gt;union_0 -->
<g id="edge1" class="edge"><title>逢沢寛&#45;&gt;union_0</title>
<path fill="none" stroke="#1abc9c" d="M188.315,-75C200.938,-75 211.417,-75 216.733,-75"/>
</g>
<!-- 祖母(不明) -->
<g id="node3" class="node"><title>祖母(不明)</title>
<polygon fill="white" stroke="red" points="188,-44 8,-44 8,-8 188,-8 188,-44"/>
<text text-anchor="middle" x="98" y="-21.8" font-family="Helvetica, Arial, sans-serif" font-size="14.00">祖母(不明)</text>
</g>
<!-- 祖母(不明)&#45;&gt;union_0 -->
<g id="edge2" class="edge"><title>祖母(不明)&#45;&gt;union_0</title>
<path fill="none" stroke="#1abc9c" d="M188.038,-26C206.794,-26 221,-26 221,-26 221,-26 221,-60.2408 221,-71.476"/>
</g>
<!-- 逢沢英雄 -->
<g id="node5" class="node"><title>逢沢英雄</title>
<polygon fill="white" stroke="blue" points="469,-93 289,-93 289,-57 469,-57 469,-93"/>
<text text-anchor="middle" x="379" y="-70.8" font-family="Helvetica, Arial, sans-serif" font-size="14.00">逢沢英雄</text>
</g>
<!-- siblings_0&#45;&gt;逢沢英雄 -->
<g id="edge4" class="edge"><title>siblings_0&#45;&gt;逢沢英雄</title>
<path fill="none" stroke="#1abc9c" d="M260.034,-75C260.034,-75 278.811,-75 278.811,-75"/>
<polygon fill="#1abc9c" stroke="#1abc9c" points="286.81,-65 286.811,-85 282.811,-85.0001 282.81,-65.0001 286.81,-65"/>
<polyline fill="none" stroke="#1abc9c" points="288.811,-75 278.811,-75.0001 "/>
</g>
<!-- union_1 -->
<g id="node6" class="node"><title>union_1</title>
<ellipse fill="#2ecc71" stroke="white" cx="501.5" cy="-129" rx="3.5" ry="3.5"/>
</g>
<!-- 逢沢英雄&#45;&gt;union_1 -->
<g id="edge5" class="edge"><title>逢沢英雄&#45;&gt;union_1</title>
<path fill="none" stroke="#2ecc71" d="M469.038,-75C487.794,-75 502,-75 502,-75 502,-75 502,-113.443 502,-125.457"/>
</g>
<!-- siblings_1 -->
<g id="node8" class="node"><title>siblings_1</title>
<polygon fill="#2ecc71" stroke="#cccccc" stroke-width="0" points="541,-129.5 534,-129.5 534,-128.5 541,-128.5 541,-129.5"/>
</g>
<!-- union_1&#45;&gt;siblings_1 -->
<g id="edge7" class="edge"><title>union_1&#45;&gt;siblings_1</title>
<path fill="none" stroke="#2ecc71" d="M505.083,-129C511.913,-129 526.732,-129 533.715,-129"/>
</g>
<!-- 母(不明) -->
<g id="node7" class="node"><title>母(不明)</title>
<polygon fill="white" stroke="red" points="469,-147 289,-147 289,-111 469,-111 469,-147"/>
<text text-anchor="middle" x="379" y="-124.8" font-family="Helvetica, Arial, sans-serif" font-size="14.00">母(不明)</text>
</g>
<!-- 母(不明)&#45;&gt;union_1 -->
<g id="edge6" class="edge"><title>母(不明)&#45;&gt;union_1</title>
<path fill="none" stroke="#2ecc71" d="M469.315,-129C481.938,-129 492.417,-129 497.733,-129"/>
</g>
<!-- 逢沢一郎 -->
<g id="node9" class="node"><title>逢沢一郎</title>
<polygon fill="white" stroke="blue" points="750,-147 570,-147 570,-111 750,-111 750,-147"/>
<text text-anchor="middle" x="660" y="-124.8" font-family="Helvetica, Arial, sans-serif" font-size="14.00">逢沢一郎</text>
</g>
<!-- siblings_1&#45;&gt;逢沢一郎 -->
<g id="edge8" class="edge"><title>siblings_1&#45;&gt;逢沢一郎</title>
<path fill="none" stroke="#2ecc71" d="M541.034,-129C541.034,-129 559.811,-129 559.811,-129"/>
<polygon fill="#2ecc71" stroke="#2ecc71" points="567.81,-119 567.811,-139 563.811,-139 563.81,-119 567.81,-119"/>
<polyline fill="none" stroke="#2ecc71" points="569.811,-129 559.811,-129 "/>
</g>
<!-- union_2 -->
<g id="node10" class="node"><title>union_2</title>
<ellipse fill="#3498db" stroke="white" cx="782.5" cy="-183" rx="3.5" ry="3.5"/>
</g>
<!-- 逢沢一郎&#45;&gt;union_2 -->
<g id="edge9" class="edge"><title>逢沢一郎&#45;&gt;union_2</title>
<path fill="none" stroke="#3498db" d="M750.038,-129C768.794,-129 783,-129 783,-129 783,-129 783,-167.443 783,-179.457"/>
</g>
<!-- siblings_2 -->
<g id="node12" class="node"><title>siblings_2</title>
<polygon fill="#3498db" stroke="#cccccc" stroke-width="0" points="822,-183.5 815,-183.5 815,-182.5 822,-182.5 822,-183.5"/>
</g>
<!-- union_2&#45;&gt;siblings_2 -->
<g id="edge11" class="edge"><title>union_2&#45;&gt;siblings_2</title>
<path fill="none" stroke="#3498db" d="M786.083,-183C792.913,-183 807.732,-183 814.715,-183"/>
</g>
<!-- 妻(不明) -->
<g id="node11" class="node"><title>妻(不明)</title>
<polygon fill="white" stroke="red" points="750,-201 570,-201 570,-165 750,-165 750,-201"/>
<text text-anchor="middle" x="660" y="-178.8" font-family="Helvetica, Arial, sans-serif" font-size="14.00">妻(不明)</text>
</g>
<!-- 妻(不明)&#45;&gt;union_2 -->
<g id="edge10" class="edge"><title>妻(不明)&#45;&gt;union_2</title>
<path fill="none" stroke="#3498db" d="M750.315,-183C762.938,-183 773.417,-183 778.733,-183"/>
</g>
<!-- 子(不明) -->
<g id="node13" class="node"><title>子(不明)</title>
<polygon fill="white" stroke="red" points="1031,-201 851,-201 851,-165 1031,-165 1031,-201"/>
<text text-anchor="middle" x="941" y="-178.8" font-family="Helvetica, Arial, sans-serif" font-size="14.00">子(不明)</text>
</g>
<!-- siblings_2&#45;&gt;子(不明) -->
<g id="edge12" class="edge"><title>siblings_2&#45;&gt;子(不明)</title>
<path fill="none" stroke="#3498db" d="M822.034,-183C822.034,-183 840.811,-183 840.811,-183"/>
<polygon fill="#3498db" stroke="#3498db" points="848.81,-173 848.811,-193 844.811,-193 844.81,-173 848.81,-173"/>
<polyline fill="none" stroke="#3498db" points="850.811,-183 840.811,-183 "/>
</g>
</g>
</svg>
