<?xml version="1.0" encoding="UTF-8" standalone="no"?>
<!DOCTYPE svg PUBLIC "-//W3C//DTD SVG 1.1//EN"
 "http://www.w3.org/Graphics/SVG/1.1/DTD/svg11.dtd">
<!-- Generated by graphviz version 2.38.0 (20140413.2041)
 -->
<!-- Title: G Pages: 1 -->
<svg width="485pt" height="299pt"
 viewBox="0.00 0.00 485.00 299.00" xmlns="http://www.w3.org/2000/svg" xmlns:xlink="http://www.w3.org/1999/xlink">
<g id="graph0" class="graph" transform="scale(1 1) rotate(0) translate(4 295)">
<title>G</title>
<polygon fill="white" stroke="none" points="-4,4 -4,-295 481,-295 481,4 -4,4"/>
<g id="clust1" class="cluster"><title>cluster_family_0</title>
</g>
<g id="clust4" class="cluster"><title>cluster_family_1</title>
</g>
<!-- union_0 -->
<g id="node1" class="node"><title>union_0</title>
<ellipse fill="#1abc9c" stroke="white" cx="220.5" cy="-50" rx="3.5" ry="3.5"/>
</g>
<!-- siblings_0 -->
<g id="node4" class="node"><title>siblings_0</title>
<polygon fill="#1abc9c" stroke="#cccccc" stroke-width="0" points="260,-50.5 253,-50.5 253,-49.5 260,-49.5 260,-50.5"/>
</g>
<!-- union_0&#45;&gt;siblings_0 -->
<g id="edge3" class="edge"><title>union_0&#45;&gt;siblings_0</title>
<path fill="none" stroke="#1abc9c" d="M224.083,-50C230.913,-50 245.732,-50 252.715,-50"/>
</g>
<!-- 父(不明) -->
<g id="node2" class="node"><title>父(不明)</title>
<polygon fill="white" stroke="blue" points="188,-98 8,-98 8,-62 188,-62 188,-98"/>
<text text-anchor="middle" x="98" y="-75.8" font-family="Helvetica, Arial, sans-serif" font-size="14.00">父(不明)</text>
</g>
<!-- 父(不明)&#45;&gt;union_0 -->
<g id="edge1" class="edge"><title>父(不明)&#45;&gt;union_0</title>
<path fill="none" stroke="#1abc9c" d="M188.116,-83C207.348,-83 222,-83 222,-83 222,-83 222,-61.6318 222,-53.2848"/>
</g>
<!-- 母(不明) -->
<g id="node3" class="node"><title>母(不明)</title>
<polygon fill="white" stroke="red" points="188,-44 8,-44 8,-8 188,-8 188,-44"/>
<text text-anchor="middle" x="98" y="-21.8" font-family="Helvetica, Arial, sans-serif" font-size="14.00">母(不明)</text>
</g>
<!-- 母(不明)&#45;&gt;union_0 -->
<g id="edge2" class="edge"><title>母(不明)&#45;&gt;union_0</title>
<path fill="none" stroke="#1abc9c" d="M188.038,-38C206.794,-38 221,-38 221,-38 221,-38 221,-42.6875 221,-46.2031"/>
</g>
<!-- 青柳陽一郎 -->
<g id="node5" class="node"><title>青柳陽一郎</title>
<polygon fill="white" stroke="#cccccc" points="469,-68 289,-68 289,-32 469,-32 469,-68"/>
<text text-anchor="middle" x="379" y="-45.8" font-family="Helvetica, Arial, sans-serif" font-size="14.00">青柳陽一郎</text>
</g>
<!-- siblings_0&#45;&gt;青柳陽一郎 -->
<g id="edge4" class="edge"><title>siblings_0&#45;&gt;青柳陽一郎</title>
<path fill="none" stroke="#1abc9c" d="M260.034,-50C260.034,-50 278.811,-50 278.811,-50"/>
<polygon fill="#1abc9c" stroke="#1abc9c" points="286.81,-40 286.811,-60 282.811,-60.0001 282.81,-40.0001 286.81,-40"/>
<polyline fill="none" stroke="#1abc9c" points="288.811,-50 278.811,-50.0001 "/>
</g>
<!-- union_1 -->
<g id="node6" class="node"><title>union_1</title>
<ellipse fill="#2ecc71" stroke="white" cx="220.5" cy="-183" rx="3.5" ry="3.5"/>
</g>
<!-- siblings_1 -->
<g id="node9" class="node"><title>siblings_1</title>
<polygon fill="#2ecc71" stroke="#cccccc" stroke-width="0" points="260,-183.5 253,-183.5 253,-182.5 260,-182.5 260,-183.5"/>
</g>
<!-- union_1&#45;&gt;siblings_1 -->
<g id="edge7" class="edge"><title>union_1&#45;&gt;siblings_1</title>
<path fill="none" stroke="#2ecc71" d="M224.083,-183C230.913,-183 245.732,-183 252.715,-183"/>
</g>
<!-- 青柳陽一郎a -->
<g id="node7" class="node"><title>青柳陽一郎a</title>
<polygon fill="white" stroke="#cccccc" points="188,-221 8,-221 8,-185 188,-185 188,-221"/>
<text text-anchor="middle" x="98" y="-198.8" font-family="Helvetica, Arial, sans-serif" font-size="14.00">青柳陽一郎a</text>
</g>
<!-- 青柳陽一郎a&#45;&gt;union_1 -->
<g id="edge5" class="edge"><title>青柳陽一郎a&#45;&gt;union_1</title>
<path fill="none" stroke="#2ecc71" d="M188.038,-193.75C206.794,-193.75 221,-193.75 221,-193.75 221,-193.75 221,-189.96 221,-186.881"/>
</g>
<!-- 妻(不明) -->
<g id="node8" class="node"><title>妻(不明)</title>
<polygon fill="white" stroke="red" points="188,-167 8,-167 8,-131 188,-131 188,-167"/>
<text text-anchor="middle" x="98" y="-144.8" font-family="Helvetica, Arial, sans-serif" font-size="14.00">妻(不明)</text>
</g>
<!-- 妻(不明)&#45;&gt;union_1 -->
<g id="edge6" class="edge"><title>妻(不明)&#45;&gt;union_1</title>
<path fill="none" stroke="#2ecc71" d="M188.264,-156C206.391,-156 220,-156 220,-156 220,-156 220,-171.827 220,-179.246"/>
</g>
<!-- 子1(不明) -->
<g id="node10" class="node"><title>子1(不明)</title>
<polygon fill="white" stroke="#cccccc" points="469,-147 289,-147 289,-111 469,-111 469,-147"/>
<text text-anchor="middle" x="379" y="-124.8" font-family="Helvetica, Arial, sans-serif" font-size="14.00">子1(不明)</text>
</g>
<!-- siblings_1&#45;&gt;子1(不明) -->
<g id="edge8" class="edge"><title>siblings_1&#45;&gt;子1(不明)</title>
<path fill="none" stroke="#2ecc71" d="M257,-182.236C257,-176.394 257,-139 257,-139 257,-139 278.736,-139 278.736,-139"/>
<polygon fill="#2ecc71" stroke="#2ecc71" points="286.735,-129 286.736,-149 282.736,-149 282.735,-129 286.735,-129"/>
<polyline fill="none" stroke="#2ecc71" points="288.736,-139 278.736,-139 "/>
</g>
<!-- 子2(不明) -->
<g id="node11" class="node"><title>子2(不明)</title>
<polygon fill="white" stroke="#cccccc" points="469,-201 289,-201 289,-165 469,-165 469,-201"/>
<text text-anchor="middle" x="379" y="-178.8" font-family="Helvetica, Arial, sans-serif" font-size="14.00">子2(不明)</text>
</g>
<!-- siblings_1&#45;&gt;子2(不明) -->
<g id="edge9" class="edge"><title>siblings_1&#45;&gt;子2(不明)</title>
<path fill="none" stroke="#2ecc71" d="M260.034,-183C260.034,-183 278.811,-183 278.811,-183"/>
<polygon fill="#2ecc71" stroke="#2ecc71" points="286.81,-173 286.811,-193 282.811,-193 282.81,-173 286.81,-173"/>
<polyline fill="none" stroke="#2ecc71" points="288.811,-183 278.811,-183 "/>
</g>
<!-- 子3(不明) -->
<g id="node12" class="node"><title>子3(不明)</title>
<polygon fill="white" stroke="#cccccc" points="469,-255 289,-255 289,-219 469,-219 469,-255"/>
<text text-anchor="middle" x="379" y="-232.8" font-family="Helvetica, Arial, sans-serif" font-size="14.00">子3(不明)</text>
</g>
<!-- siblings_1&#45;&gt;子3(不明) -->
<g id="edge10" class="edge"><title>siblings_1&#45;&gt;子3(不明)</title>
<path fill="none" stroke="#2ecc71" d="M257,-183.618C257,-189.66 257,-238 257,-238 257,-238 278.736,-238 278.736,-238"/>
<polygon fill="#2ecc71" stroke="#2ecc71" points="286.735,-228 286.736,-248 282.736,-248 282.735,-228 286.735,-228"/>
<polyline fill="none" stroke="#2ecc71" points="288.736,-238 278.736,-238 "/>
</g>
<!-- 青柳仁士 -->
<g id="node13" class="node"><title>青柳仁士</title>
<polygon fill="white" stroke="blue" points="188,-291 8,-291 8,-255 188,-255 188,-291"/>
<text text-anchor="middle" x="98" y="-268.8" font-family="Helvetica, Arial, sans-serif" font-size="14.00">青柳仁士</text>
</g>
</g>
</svg>
