<?xml version="1.0" encoding="UTF-8" standalone="no"?>
<!DOCTYPE svg PUBLIC "-//W3C//DTD SVG 1.1//EN"
 "http://www.w3.org/Graphics/SVG/1.1/DTD/svg11.dtd">
<!-- Generated by graphviz version 2.38.0 (20140413.2041)
 -->
<!-- Title: G Pages: 1 -->
<svg width="766pt" height="266pt"
 viewBox="0.00 0.00 766.00 266.00" xmlns="http://www.w3.org/2000/svg" xmlns:xlink="http://www.w3.org/1999/xlink">
<g id="graph0" class="graph" transform="scale(1 1) rotate(0) translate(4 262)">
<title>G</title>
<polygon fill="white" stroke="none" points="-4,4 -4,-262 762,-262 762,4 -4,4"/>
<g id="clust1" class="cluster"><title>cluster_family_0</title>
</g>
<g id="clust4" class="cluster"><title>cluster_family_1</title>
</g>
<!-- union_0 -->
<g id="node1" class="node"><title>union_0</title>
<ellipse fill="#1abc9c" stroke="white" cx="220.5" cy="-80" rx="3.5" ry="3.5"/>
</g>
<!-- siblings_0 -->
<g id="node4" class="node"><title>siblings_0</title>
<polygon fill="#1abc9c" stroke="#cccccc" stroke-width="0" points="260,-80.5 253,-80.5 253,-79.5 260,-79.5 260,-80.5"/>
</g>
<!-- union_0&#45;&gt;siblings_0 -->
<g id="edge3" class="edge"><title>union_0&#45;&gt;siblings_0</title>
<path fill="none" stroke="#1abc9c" d="M224.083,-80C230.913,-80 245.732,-80 252.715,-80"/>
</g>
<!-- 父(不明) -->
<g id="node2" class="node"><title>父(不明)</title>
<polygon fill="white" stroke="blue" points="188,-98 8,-98 8,-62 188,-62 188,-98"/>
<text text-anchor="middle" x="98" y="-75.8" font-family="Helvetica, Arial, sans-serif" font-size="14.00">父(不明)</text>
</g>
<!-- 父(不明)&#45;&gt;union_0 -->
<g id="edge1" class="edge"><title>父(不明)&#45;&gt;union_0</title>
<path fill="none" stroke="#1abc9c" d="M188.315,-80C200.938,-80 211.417,-80 216.733,-80"/>
</g>
<!-- 母(不明) -->
<g id="node3" class="node"><title>母(不明)</title>
<polygon fill="white" stroke="red" points="188,-44 8,-44 8,-8 188,-8 188,-44"/>
<text text-anchor="middle" x="98" y="-21.8" font-family="Helvetica, Arial, sans-serif" font-size="14.00">母(不明)</text>
</g>
<!-- 母(不明)&#45;&gt;union_0 -->
<g id="edge2" class="edge"><title>母(不明)&#45;&gt;union_0</title>
<path fill="none" stroke="#1abc9c" d="M188.038,-26C206.794,-26 221,-26 221,-26 221,-26 221,-64.4434 221,-76.4569"/>
</g>
<!-- 青柳仁士 -->
<g id="node5" class="node"><title>青柳仁士</title>
<polygon fill="white" stroke="blue" points="469,-98 289,-98 289,-62 469,-62 469,-98"/>
<text text-anchor="middle" x="379" y="-75.8" font-family="Helvetica, Arial, sans-serif" font-size="14.00">青柳仁士</text>
</g>
<!-- siblings_0&#45;&gt;青柳仁士 -->
<g id="edge4" class="edge"><title>siblings_0&#45;&gt;青柳仁士</title>
<path fill="none" stroke="#1abc9c" d="M260.034,-80C260.034,-80 278.811,-80 278.811,-80"/>
<polygon fill="#1abc9c" stroke="#1abc9c" points="286.81,-70 286.811,-90 282.811,-90.0001 282.81,-70.0001 286.81,-70"/>
<polyline fill="none" stroke="#1abc9c" points="288.811,-80 278.811,-80.0001 "/>
</g>
<!-- union_1 -->
<g id="node6" class="node"><title>union_1</title>
<ellipse fill="#2ecc71" stroke="white" cx="501.5" cy="-156" rx="3.5" ry="3.5"/>
</g>
<!-- 青柳仁士&#45;&gt;union_1 -->
<g id="edge5" class="edge"><title>青柳仁士&#45;&gt;union_1</title>
<path fill="none" stroke="#2ecc71" d="M469.038,-80C487.794,-80 502,-80 502,-80 502,-80 502,-137.153 502,-152.334"/>
</g>
<!-- siblings_1 -->
<g id="node8" class="node"><title>siblings_1</title>
<polygon fill="#2ecc71" stroke="#cccccc" stroke-width="0" points="541,-156.5 534,-156.5 534,-155.5 541,-155.5 541,-156.5"/>
</g>
<!-- union_1&#45;&gt;siblings_1 -->
<g id="edge7" class="edge"><title>union_1&#45;&gt;siblings_1</title>
<path fill="none" stroke="#2ecc71" d="M505.083,-156C511.913,-156 526.732,-156 533.715,-156"/>
</g>
<!-- 妻(不明) -->
<g id="node7" class="node"><title>妻(不明)</title>
<polygon fill="white" stroke="red" points="469,-174 289,-174 289,-138 469,-138 469,-174"/>
<text text-anchor="middle" x="379" y="-151.8" font-family="Helvetica, Arial, sans-serif" font-size="14.00">妻(不明)</text>
</g>
<!-- 妻(不明)&#45;&gt;union_1 -->
<g id="edge6" class="edge"><title>妻(不明)&#45;&gt;union_1</title>
<path fill="none" stroke="#2ecc71" d="M469.315,-156C481.938,-156 492.417,-156 497.733,-156"/>
</g>
<!-- 子1(不明) -->
<g id="node9" class="node"><title>子1(不明)</title>
<polygon fill="white" stroke="#cccccc" points="750,-142 570,-142 570,-106 750,-106 750,-142"/>
<text text-anchor="middle" x="660" y="-119.8" font-family="Helvetica, Arial, sans-serif" font-size="14.00">子1(不明)</text>
</g>
<!-- siblings_1&#45;&gt;子1(不明) -->
<g id="edge8" class="edge"><title>siblings_1&#45;&gt;子1(不明)</title>
<path fill="none" stroke="#2ecc71" d="M538,-155.16C538,-149.924 538,-122 538,-122 538,-122 559.736,-122 559.736,-122"/>
<polygon fill="#2ecc71" stroke="#2ecc71" points="567.735,-112 567.736,-132 563.736,-132 563.735,-112 567.735,-112"/>
<polyline fill="none" stroke="#2ecc71" points="569.736,-122 559.736,-122 "/>
</g>
<!-- 子2(不明) -->
<g id="node10" class="node"><title>子2(不明)</title>
<polygon fill="white" stroke="#cccccc" points="750,-196 570,-196 570,-160 750,-160 750,-196"/>
<text text-anchor="middle" x="660" y="-173.8" font-family="Helvetica, Arial, sans-serif" font-size="14.00">子2(不明)</text>
</g>
<!-- siblings_1&#45;&gt;子2(不明) -->
<g id="edge9" class="edge"><title>siblings_1&#45;&gt;子2(不明)</title>
<path fill="none" stroke="#2ecc71" d="M539,-156.722C539,-159.169 539,-167 539,-167 539,-167 559.846,-167 559.846,-167"/>
<polygon fill="#2ecc71" stroke="#2ecc71" points="567.846,-157 567.847,-177 563.847,-177 563.846,-157 567.846,-157"/>
<polyline fill="none" stroke="#2ecc71" points="569.846,-167 559.846,-167 "/>
</g>
<!-- 子3(不明) -->
<g id="node11" class="node"><title>子3(不明)</title>
<polygon fill="white" stroke="#cccccc" points="750,-250 570,-250 570,-214 750,-214 750,-250"/>
<text text-anchor="middle" x="660" y="-227.8" font-family="Helvetica, Arial, sans-serif" font-size="14.00">子3(不明)</text>
</g>
<!-- siblings_1&#45;&gt;子3(不明) -->
<g id="edge10" class="edge"><title>siblings_1&#45;&gt;子3(不明)</title>
<path fill="none" stroke="#2ecc71" d="M537,-156.854C537,-165.203 537,-232 537,-232 537,-232 559.962,-232 559.962,-232"/>
<polygon fill="#2ecc71" stroke="#2ecc71" points="567.962,-222 567.962,-242 563.962,-242 563.962,-222 567.962,-222"/>
<polyline fill="none" stroke="#2ecc71" points="569.962,-232 559.962,-232 "/>
</g>
</g>
</svg>
